<?xml version="1.0" encoding="utf-8"?>
<!-- Generator: Adobe Illustrator 23.1.1, SVG Export Plug-In . SVG Version: 6.00 Build 0)  -->
<svg version="1.1" xmlns="http://www.w3.org/2000/svg" xmlns:xlink="http://www.w3.org/1999/xlink" x="0px" y="0px"
	 viewBox="0 0 640 377.3" style="enable-background:new 0 0 640 377.3;" xml:space="preserve">
<style type="text/css">
	.st0{fill:#F2D361;}
	.st1{fill:#FFFFFF;}
</style>
<g id="Layer_2">
	<rect class="st0" width="640" height="377.3"/>
</g>
<g id="Layer_1">
	<g>
		<path class="st1" d="M73,201.6v22.6H50.4v-71.1h30.9c8.4,0,15,2.5,20.1,6.7c5,4.2,6.7,10,6.7,17.6c0,4.2-0.8,8.4-3.3,12.5
			s-4.2,6.7-8.4,8.4c-4.2,2.5-9.2,3.3-15,3.3H73z M85.5,177.4c0-4.2-2.5-6.7-6.7-6.7H73V184h6.7C83.9,184,85.5,181.5,85.5,177.4z"/>
		<path class="st1" d="M154.9,207.5h21.7v16.7h-44.3v-71.1h22.6V207.5z"/>
		<path class="st1" d="M246,213.3h-23.4l-3.3,10.9h-23.4l25.1-71.1h25.9l25.9,71.1h-23.4L246,213.3z M240.2,196.6l-5.9-20.1
			l-6.7,20.1H240.2z"/>
		<path class="st1" d="M363,224.2h-22.6l-23.4-35.9v35.9h-22.6v-71.1h22.6l23.4,35.9v-35.9H363V224.2z"/>
		<path class="st1" d="M412.4,153.1v71.1h-22.6v-71.1H412.4z"/>
		<path class="st1" d="M495.1,153.1v17.6h-18.4v53.5h-22.6v-53.5h-18.4v-17.6H495.1z"/>
		<path class="st1" d="M555.3,154.8c-19.2,0-34.3,15-34.3,34.3s15,34.3,34.3,34.3c19.2,0,34.3-15,34.3-34.3S574.5,154.8,555.3,154.8
			z M575.4,178.2l-25.1,25.9l-0.8,0.8c0,0-0.8,0-0.8-0.8l-11.7-12.5l0,0l-0.8-0.8c0,0,0-0.8,0.8-0.8l2.5-2.5c0.8-0.8,1.7-0.8,2.5,0
			l0,0l8.4,9.2h0.8l20.9-21.7l0,0c0.8-0.8,1.7-0.8,2.5,0l2.5,2.5C576.2,176.5,576.2,177.4,575.4,178.2z"/>
	</g>
</g>
</svg>
