<?xml version="1.0" encoding="utf-8"?>
<!-- Generator: Adobe Illustrator 23.0.4, SVG Export Plug-In . SVG Version: 6.00 Build 0)  -->
<svg version="1.1" id="Layer_1" xmlns="http://www.w3.org/2000/svg" xmlns:xlink="http://www.w3.org/1999/xlink" x="0px" y="0px"
	 viewBox="0 0 512 512" style="enable-background:new 0 0 512 512;" xml:space="preserve">
<style type="text/css">
	.st0{fill:#FFFFFF;}
</style>
<g>
	<path class="st0" d="M255.2,512C121.7,512,12.1,409.7,0.4,279.3h208.3v69.8c0,9.4,5.7,17.9,14.4,21.5c8.7,3.6,18.7,1.6,25.4-5
		l93.1-93.1c9.1-9.1,9.1-23.8,0-32.9l-93.1-93.1c-6.7-6.7-16.7-8.7-25.4-5c-8.7,3.6-14.4,12.1-14.4,21.5v69.8H0.4
		C12.1,102.3,121.7,0,255.2,0c141.4,0,256,114.6,256,256C511.2,397.4,396.6,512,255.2,512z"/>
</g>
</svg>
