<?xml version="1.0" encoding="utf-8"?>
<!-- Generator: Adobe Illustrator 23.0.4, SVG Export Plug-In . SVG Version: 6.00 Build 0)  -->
<svg version="1.1" id="Layer_1" xmlns="http://www.w3.org/2000/svg" xmlns:xlink="http://www.w3.org/1999/xlink" x="0px" y="0px"
	 viewBox="0 0 64.5 8.5" style="enable-background:new 0 0 64.5 8.5;" xml:space="preserve">
<style type="text/css">
	.st0{fill:#FFFFFF;}
</style>
<path class="st0" d="M2.7,5.8v2.7H0V0h3.7c1,0,1.8,0.3,2.4,0.8C6.7,1.3,6.9,2,6.9,2.9c0,0.5-0.1,1-0.4,1.5S6,5.2,5.5,5.4
	C5,5.7,4.4,5.8,3.7,5.8H2.7z M4.2,2.9c0-0.5-0.3-0.8-0.8-0.8H2.7v1.6h0.8C4,3.7,4.2,3.4,4.2,2.9z"/>
<path class="st0" d="M12.5,6.5h2.6v2H9.8V0h2.7V6.5z"/>
<path class="st0" d="M23.4,7.2h-2.8l-0.4,1.3h-2.8L20.4,0h3.1l3.1,8.5h-2.8L23.4,7.2z M22.7,5.2L22,2.8l-0.8,2.4H22.7z"/>
<path class="st0" d="M37.4,8.5h-2.7l-2.8-4.3v4.3h-2.7V0h2.7l2.8,4.3V0h2.7V8.5z"/>
<path class="st0" d="M43.3,0v8.5h-2.7V0H43.3z"/>
<path class="st0" d="M53.2,0v2.1H51v6.4h-2.7V2.1h-2.2V0H53.2z"/>
<path class="st0" d="M60.4,0.2c-2.3,0-4.1,1.8-4.1,4.1c0,2.3,1.8,4.1,4.1,4.1c2.3,0,4.1-1.8,4.1-4.1C64.5,2,62.7,0.2,60.4,0.2z
	 M62.8,3l-3,3.1c0,0-0.1,0.1-0.1,0.1s-0.1,0-0.1-0.1l-1.4-1.5l0,0c0,0-0.1-0.1-0.1-0.1c0,0,0-0.1,0.1-0.1l0.3-0.3
	c0.1-0.1,0.2-0.1,0.3,0l0,0l1,1.1c0,0,0.1,0,0.1,0l2.5-2.6h0c0.1-0.1,0.2-0.1,0.3,0l0.3,0.3C62.9,2.8,62.9,2.9,62.8,3z"/>
</svg>
