<?xml version="1.0" encoding="utf-8"?>
<!-- Generator: Adobe Illustrator 23.0.4, SVG Export Plug-In . SVG Version: 6.00 Build 0)  -->
<svg version="1.1" id="Layer_1" xmlns="http://www.w3.org/2000/svg" xmlns:xlink="http://www.w3.org/1999/xlink" x="0px" y="0px"
	 viewBox="0 0 34.7 8.7" style="enable-background:new 0 0 34.7 8.7;" xml:space="preserve">
<style type="text/css">
	.st0{fill:#F7D347;}
</style>
<path class="st0" d="M7.2,0.2v2.1H4.9v6.4H2.2V2.3H0V0.2H7.2z"/>
<path class="st0" d="M14.2,0.6c0.7,0.4,1.2,0.9,1.6,1.6c0.4,0.7,0.6,1.4,0.6,2.2c0,0.8-0.2,1.6-0.6,2.2c-0.4,0.7-0.9,1.2-1.6,1.6
	c-0.7,0.4-1.4,0.6-2.2,0.6c-0.8,0-1.5-0.2-2.2-0.6C9.1,7.8,8.6,7.3,8.2,6.6C7.8,6,7.6,5.2,7.6,4.4c0-0.8,0.2-1.6,0.6-2.2
	C8.6,1.5,9.1,1,9.8,0.6S11.2,0,12,0C12.8,0,13.5,0.2,14.2,0.6z M10.8,3c-0.3,0.3-0.4,0.8-0.4,1.4c0,0.6,0.1,1,0.4,1.4
	c0.3,0.3,0.7,0.5,1.2,0.5c0.5,0,0.9-0.2,1.2-0.5c0.3-0.3,0.4-0.8,0.4-1.4c0-0.6-0.1-1-0.4-1.4S12.5,2.5,12,2.5
	C11.5,2.5,11.1,2.7,10.8,3z"/>
<path class="st0" d="M24.7,6.6c-0.4,0.6-0.9,1.2-1.5,1.5c-0.7,0.4-1.4,0.6-2.3,0.6h-3.5V0.2h3.5c0.9,0,1.7,0.2,2.3,0.5
	c0.7,0.4,1.2,0.9,1.5,1.5c0.4,0.6,0.5,1.4,0.5,2.2C25.3,5.2,25.1,5.9,24.7,6.6z M22.1,5.8c0.4-0.3,0.5-0.8,0.5-1.4S22.4,3.3,22.1,3
	c-0.4-0.3-0.8-0.5-1.4-0.5H20v3.8h0.6C21.2,6.3,21.7,6.1,22.1,5.8z"/>
<path class="st0" d="M30.4,0C27.9,0,26,1.9,26,4.4s1.9,4.4,4.4,4.4s4.4-1.9,4.4-4.4S32.8,0,30.4,0z M32.9,3L32.9,3l-3.2,3.3
	c0,0-0.1,0.1-0.1,0.1s-0.1,0-0.1-0.1l-1.6-1.7l0,0c0,0-0.1-0.1-0.1-0.1c0,0,0-0.1,0.1-0.1L28.1,4C28.2,4,28.3,4,28.4,4l0,0l1.1,1.2
	c0,0,0.1,0,0.1,0l2.7-2.8h0c0.1-0.1,0.2-0.1,0.3,0l0.3,0.3C33,2.8,33,2.9,32.9,3z"/>
</svg>
