<?xml version="1.0" encoding="utf-8"?>
<!-- Generator: Adobe Illustrator 23.0.4, SVG Export Plug-In . SVG Version: 6.00 Build 0)  -->
<svg version="1.1" id="Layer_1" xmlns="http://www.w3.org/2000/svg" xmlns:xlink="http://www.w3.org/1999/xlink" x="0px" y="0px"
	 viewBox="0 0 60.3 41.9" style="enable-background:new 0 0 60.3 41.9;" xml:space="preserve">
<style type="text/css">
	.st0{fill:#F7D347;}
	.st1{fill:#FFFFFF;stroke:#FFFFFF;stroke-width:0.9733;}
</style>
<path id="Path_3" class="st0" d="M60.3-0.1h-37L0,41.8h60.3V-0.1z"/>
<path class="st1" d="M43,23.7c-0.8-0.8-1.9-1.5-3-1.9c2.1-1.4,2.6-4.3,1.2-6.3c-1.4-2.1-4.3-2.6-6.3-1.2c-2.1,1.4-2.6,4.3-1.2,6.3
	c0.3,0.5,0.7,0.9,1.2,1.2c-3.2,1.1-5.3,4.1-5.3,7.5h0.2h1H44h0.6h0.6C45.3,27.2,44.4,25.2,43,23.7z M34,18.1c0-1.8,1.5-3.3,3.3-3.3
	s3.3,1.5,3.3,3.3c0,1.8-1.5,3.3-3.3,3.3S34,19.9,34,18.1z M30.8,28.2c0.5-3.1,3.3-5.6,6.6-5.6s6,2.4,6.6,5.6H30.8z"/>
</svg>
